<?xml version="1.0" encoding="UTF-8"?>
<svg id="Ebene_1" xmlns="http://www.w3.org/2000/svg" viewBox="0 0 609.22 349.46">
  <defs>
    <style>
      .cls-1 {
        fill: #04d69e;
      }
    </style>
  </defs>
  <path class="cls-1" d="M377.45,262.38c5.05-65.16-16.49-115.54-72.65-148.97-31.6-18.82-66.29-29.6-101.33-39.55-43.32-12.3-86.82-24.03-129.89-37.17C50.72,29.72,29.63,18.41,10.99,3.04c-1.12-.93-2.45-1.6-4.69-3.04-1.58,11.47-3.49,21.98-4.42,32.58C-2.75,85.52.37,137.76,20.19,187.66c32.04,80.67,89.61,133.78,174.31,154.89,50.33,12.54,99.74,8.73,145.89-17.36,7.32-4.14,13.69-9.93,20.91-14.26,2.79-1.67,7.1-2.65,10.13-1.81,32.55,8.99,64.67,19.78,97.53,27.38,43,9.94,86.64,12.36,130.29,2.68,9.95-2.21,12.49-7.62,7.37-16.65-6.09-10.75-16.94-15.64-28.9-13.01-26.63,5.85-53.52,5.15-80.37,2.61-39.33-3.72-78.07-10.81-116.02-21.91-43.69-12.78-84.86-31.74-125.7-51.49-10.61-5.13-21.45-9.8-31.86-15.3-8.04-4.25-15.48-3.69-23.52-.21-9.12,3.95-18.31,8.15-27.89,10.5-16.09,3.94-31.99,1.03-45.94-7.45-34.47-20.95-61.11-49.24-74.1-88.07-9.29-27.76,7.35-49.62,36.65-49.73,38.34-.14,72.36,13.38,102.48,36.06,17.63,13.28,26.36,32.67,26.88,54.8.33,13.8,4.82,22.82,18.45,28.24,39.47,15.69,78.48,32.51,117.81,48.55,7,2.86,14.67,4.08,22.83,6.27Z"/>
</svg>